<svg width="17" height="24" viewBox="0 0 17 24" fill="none" xmlns="http://www.w3.org/2000/svg">
<path d="M14.4286 0.75H2.64286C2.07462 0.75 1.52955 0.975765 1.12755 1.37755C0.725765 1.77958 0.5 2.32463 0.5 2.89286V21.1071C0.5 21.6754 0.725765 22.2204 1.12755 22.6224C1.52958 23.0242 2.07463 23.25 2.64286 23.25H14.4286C14.9968 23.25 15.5419 23.0242 15.9439 22.6224C16.3457 22.2204 16.5714 21.6754 16.5714 21.1071V2.89286C16.5714 2.32462 16.3457 1.77955 15.9439 1.37755C15.5419 0.975765 14.9968 0.75 14.4286 0.75ZM15.5 21.1071C15.5 21.3913 15.3871 21.6639 15.1862 21.8648C14.9853 22.0657 14.7127 22.1786 14.4286 22.1786H2.64286C2.35874 22.1786 2.08609 22.0657 1.8852 21.8648C1.68431 21.6639 1.57143 21.3913 1.57143 21.1071V2.89286C1.57143 2.60874 1.68431 2.33609 1.8852 2.1352C2.08609 1.93431 2.35874 1.82143 2.64286 1.82143H14.4286C14.7127 1.82143 14.9853 1.93431 15.1862 2.1352C15.3871 2.33609 15.5 2.60874 15.5 2.89286V21.1071ZM13.3571 2.89286H3.71429C3.43017 2.89286 3.15752 3.00574 2.95663 3.20663C2.75574 3.40752 2.64286 3.68017 2.64286 3.96429V6.10714C2.64286 6.39126 2.75574 6.66391 2.95663 6.8648C3.15752 7.06569 3.43017 7.17857 3.71429 7.17857H13.3571C13.6413 7.17857 13.9139 7.06569 14.1148 6.8648C14.3157 6.66391 14.4286 6.39126 14.4286 6.10714V3.96429C14.4286 3.68017 14.3157 3.40752 14.1148 3.20663C13.9139 3.00574 13.6413 2.89286 13.3571 2.89286ZM13.3571 6.10714H3.71429V3.96429H13.3571V6.10714ZM4.25 8.78571C3.82382 8.78571 3.41484 8.95504 3.11355 9.25638C2.81226 9.55772 2.64289 9.9667 2.64289 10.3928C2.64289 10.8189 2.81221 11.228 3.11355 11.5293C3.41489 11.8306 3.82388 11.9999 4.25 11.9999C4.67612 11.9999 5.08516 11.8306 5.38645 11.5293C5.68773 11.2279 5.85711 10.8189 5.85711 10.3928C5.85711 9.9667 5.68779 9.55766 5.38645 9.25638C5.08511 8.95509 4.67612 8.78571 4.25 8.78571ZM4.25 10.9286C4.03332 10.9286 3.83793 10.798 3.75518 10.5978C3.67219 10.3976 3.71787 10.1673 3.87117 10.014C4.02447 9.86072 4.25478 9.81505 4.45496 9.89804C4.65513 9.98079 4.78571 10.1762 4.78571 10.3929C4.78571 10.5349 4.72927 10.6712 4.62883 10.7717C4.52838 10.8721 4.39206 10.9286 4.25 10.9286ZM4.25 13.0714C3.82382 13.0714 3.41484 13.2408 3.11355 13.5421C2.81226 13.8434 2.64289 14.2524 2.64289 14.6785C2.64289 15.1047 2.81221 15.5137 3.11355 15.815C3.41489 16.1163 3.82388 16.2857 4.25 16.2857C4.67612 16.2857 5.08516 16.1163 5.38645 15.815C5.68773 15.5136 5.85711 15.1047 5.85711 14.6785C5.85711 14.2524 5.68779 13.8434 5.38645 13.5421C5.08511 13.2408 4.67612 13.0714 4.25 13.0714ZM4.25 15.2143C4.03332 15.2143 3.83793 15.0837 3.75518 14.8835C3.67219 14.6834 3.71787 14.4531 3.87117 14.2997C4.02447 14.1464 4.25478 14.1008 4.45496 14.1838C4.65513 14.2665 4.78571 14.4619 4.78571 14.6786C4.78571 14.8206 4.72927 14.957 4.62883 15.0574C4.52838 15.1578 4.39206 15.2143 4.25 15.2143ZM4.25 17.3571C3.82382 17.3571 3.41484 17.5265 3.11355 17.8278C2.81226 18.1291 2.64289 18.5381 2.64289 18.9643C2.64289 19.3904 2.81221 19.7994 3.11355 20.1007C3.41489 20.402 3.82388 20.5714 4.25 20.5714C4.67612 20.5714 5.08516 20.402 5.38645 20.1007C5.68773 19.7994 5.85711 19.3904 5.85711 18.9643C5.85711 18.5381 5.68779 18.1291 5.38645 17.8278C5.08511 17.5265 4.67612 17.3571 4.25 17.3571ZM4.25 19.5C4.03332 19.5 3.83793 19.3694 3.75518 19.1692C3.67219 18.9691 3.71787 18.7388 3.87117 18.5855C4.02447 18.4322 4.25478 18.3865 4.45496 18.4695C4.65513 18.5522 4.78571 18.7476 4.78571 18.9643C4.78571 19.1063 4.72927 19.2427 4.62883 19.3431C4.52838 19.4436 4.39206 19.5 4.25 19.5ZM8.53571 8.78571C8.10954 8.78571 7.70055 8.95504 7.39926 9.25638C7.09798 9.55772 6.9286 9.9667 6.9286 10.3928C6.9286 10.8189 7.09792 11.228 7.39926 11.5293C7.7006 11.8306 8.10959 11.9999 8.53571 11.9999C8.96184 11.9999 9.37088 11.8306 9.67216 11.5293C9.97345 11.2279 10.1428 10.8189 10.1428 10.3928C10.1428 9.9667 9.9735 9.55766 9.67216 9.25638C9.37082 8.95509 8.96184 8.78571 8.53571 8.78571ZM8.53571 10.9286C8.31903 10.9286 8.12364 10.798 8.0409 10.5978C7.95791 10.3976 8.00359 10.1673 8.15689 10.014C8.31019 9.86072 8.54049 9.81505 8.74067 9.89804C8.94085 9.98079 9.07143 10.1762 9.07143 10.3929C9.07143 10.5349 9.01499 10.6712 8.91454 10.7717C8.81409 10.8721 8.67777 10.9286 8.53571 10.9286ZM8.53571 13.0714C8.10954 13.0714 7.70055 13.2408 7.39926 13.5421C7.09798 13.8434 6.9286 14.2524 6.9286 14.6785C6.9286 15.1047 7.09792 15.5137 7.39926 15.815C7.7006 16.1163 8.10959 16.2857 8.53571 16.2857C8.96184 16.2857 9.37088 16.1163 9.67216 15.815C9.97345 15.5136 10.1428 15.1047 10.1428 14.6785C10.1428 14.2524 9.9735 13.8434 9.67216 13.5421C9.37082 13.2408 8.96184 13.0714 8.53571 13.0714ZM8.53571 15.2143C8.31903 15.2143 8.12364 15.0837 8.0409 14.8835C7.95791 14.6834 8.00359 14.4531 8.15689 14.2997C8.31019 14.1464 8.54049 14.1008 8.74067 14.1838C8.94085 14.2665 9.07143 14.4619 9.07143 14.6786C9.07143 14.8206 9.01499 14.957 8.91454 15.0574C8.81409 15.1578 8.67777 15.2143 8.53571 15.2143ZM8.53571 17.3571C8.10954 17.3571 7.70055 17.5265 7.39926 17.8278C7.09798 18.1291 6.9286 18.5381 6.9286 18.9643C6.9286 19.3904 7.09792 19.7994 7.39926 20.1007C7.7006 20.402 8.10959 20.5714 8.53571 20.5714C8.96184 20.5714 9.37088 20.402 9.67216 20.1007C9.97345 19.7994 10.1428 19.3904 10.1428 18.9643C10.1428 18.5381 9.9735 18.1291 9.67216 17.8278C9.37082 17.5265 8.96184 17.3571 8.53571 17.3571ZM8.53571 19.5C8.31903 19.5 8.12364 19.3694 8.0409 19.1692C7.95791 18.9691 8.00359 18.7388 8.15689 18.5855C8.31019 18.4322 8.54049 18.3865 8.74067 18.4695C8.94085 18.5522 9.07143 18.7476 9.07143 18.9643C9.07143 19.1063 9.01499 19.2427 8.91454 19.3431C8.81409 19.4436 8.67777 19.5 8.53571 19.5ZM12.8214 8.78571C12.3952 8.78571 11.9863 8.95504 11.685 9.25638C11.3837 9.55772 11.2143 9.9667 11.2143 10.3928C11.2143 10.8189 11.3836 11.228 11.685 11.5293C11.9863 11.8306 12.3953 11.9999 12.8214 11.9999C13.2476 11.9999 13.6566 11.8306 13.9579 11.5293C14.2592 11.2279 14.4285 10.8189 14.4285 10.3928C14.4285 9.9667 14.2592 9.55766 13.9579 9.25638C13.6565 8.95509 13.2476 8.78571 12.8214 8.78571ZM12.8214 10.9286C12.6047 10.9286 12.4094 10.798 12.3266 10.5978C12.2436 10.3976 12.2893 10.1673 12.4426 10.014C12.5959 9.86072 12.8262 9.81505 13.0264 9.89804C13.2266 9.98079 13.3571 10.1762 13.3571 10.3929C13.3571 10.5349 13.3007 10.6712 13.2003 10.7717C13.0998 10.8721 12.9635 10.9286 12.8214 10.9286ZM12.8214 13.0714C12.3952 13.0714 11.9863 13.2408 11.685 13.5421C11.3837 13.8434 11.2143 14.2524 11.2143 14.6785V18.9643C11.2143 19.5385 11.5207 20.0689 12.0179 20.3561C12.5151 20.6431 13.1278 20.6431 13.625 20.3561C14.1222 20.0689 14.4286 19.5385 14.4286 18.9643V14.6785C14.4286 14.2524 14.2593 13.8434 13.9579 13.5421C13.6566 13.2408 13.2476 13.0714 12.8215 13.0714H12.8214ZM13.3571 18.9643C13.3571 19.2601 13.1173 19.5 12.8214 19.5C12.5256 19.5 12.2857 19.2601 12.2857 18.9643V14.6786C12.2857 14.3827 12.5256 14.1429 12.8214 14.1429C13.1173 14.1429 13.3571 14.3827 13.3571 14.6786V18.9643Z" fill="black"/>
</svg>
