<svg width="40" height="40" viewBox="0 0 40 40" fill="none" xmlns="http://www.w3.org/2000/svg">
<path d="M20 40C25.3042 40 30.3917 37.8927 34.1421 34.1421C37.8927 30.3912 40 25.3042 40 20C40 14.6958 37.8927 9.60829 34.1421 5.85789C30.3912 2.10725 25.3042 0 20 0C14.6958 0 9.60828 2.10725 5.85788 5.85789C2.10725 9.60883 0 14.6958 0 20C0 25.3042 2.10725 30.3917 5.85788 34.1421C9.60883 37.8927 14.6958 40 20 40ZM9.61841 20.5272C9.95902 20.1887 10.4198 19.9985 10.9002 19.9985C11.3808 19.9985 11.8413 20.1887 12.1822 20.5272L16.3638 24.7092L26.8911 14.1819C27.3593 13.781 27.9985 13.6446 28.5893 13.8193C29.1804 13.9941 29.6425 14.4564 29.8172 15.0472C29.9922 15.6383 29.8555 16.2776 29.4547 16.7457L17.6362 28.5642L17.6365 28.5639C17.2956 28.9027 16.8351 29.0926 16.3545 29.0926C15.8741 29.0926 15.4133 28.9027 15.0727 28.5639L9.61815 23.1093C9.27389 22.7681 9.08031 22.3033 9.08031 21.8185C9.08031 21.3339 9.2739 20.8691 9.61815 20.5276L9.61841 20.5272Z" fill="#3CA333"/>
</svg>
