<svg width="24" height="24" viewBox="0 0 24 24" fill="none" xmlns="http://www.w3.org/2000/svg">
<path d="M23.2006 15.9943C23.223 15.9305 23.2364 15.8638 23.2406 15.7964C23.2418 15.78 23.25 15.7664 23.25 15.75V1.5C23.25 1.30112 23.171 1.11027 23.0304 0.969643C22.8897 0.82902 22.6989 0.75 22.5 0.75H1.5C1.30112 0.75 1.11027 0.82902 0.969643 0.969643C0.82902 1.11027 0.75 1.30112 0.75 1.5V22.5C0.75 22.6989 0.82902 22.8897 0.969643 23.0304C1.11027 23.171 1.30112 23.25 1.5 23.25H15.75C15.949 23.2492 16.1396 23.1701 16.2807 23.0299L23.0294 16.2811L23.0319 16.278L23.0321 16.2778C23.0919 16.2159 23.1402 16.1439 23.1754 16.0654C23.1849 16.0421 23.1933 16.0185 23.2005 15.9944L23.2006 15.9943ZM14.9999 15.75V21.75H2.2499V2.25H21.7499V15H15.7499C15.551 15 15.3602 15.079 15.2195 15.2196C15.0789 15.3603 14.9999 15.5511 14.9999 15.75ZM16.4999 20.6893V16.4998H20.6894L16.4999 20.6893Z" fill="black"/>
</svg>
