<svg width="24" height="17" viewBox="0 0 24 17" fill="none" xmlns="http://www.w3.org/2000/svg">
<path d="M20.1187 7.14791C20.4102 6.8563 20.8837 6.85708 21.1747 7.14822C21.4664 7.43983 21.4649 7.91427 21.175 8.20415L12.6033 16.7758C12.3117 17.0674 11.8383 17.0668 11.5472 16.7757C11.2556 16.4839 11.257 16.0095 11.547 15.7196L20.1187 7.14791ZM18.2622 12.8071L21.175 15.7198C21.4661 16.011 21.4664 16.4841 21.1747 16.7759C20.8837 17.0671 20.4102 17.0677 20.1187 16.7761L17.206 13.8633L18.2622 12.8071ZM15.5159 10.0608L14.4597 11.117L11.5469 8.20424C11.2557 7.9131 11.2554 7.43993 11.547 7.14831C11.8382 6.85717 12.3115 6.85639 12.6031 7.148L15.5159 10.0608ZM6.64652 16.5299L3.87545 11.9299C3.53455 11.3639 2.72361 10.9056 2.0638 10.9056C0.886527 10.9056 0.75 10.4803 0.75 9.96129C0.75 9.44242 1.42191 9.11316 2.08232 9.11316H3.07565C3.73687 9.11316 4.54735 9.57127 4.88778 10.1365L5.97509 11.9417C6.3152 12.5062 6.72466 12.4474 6.88867 11.8088L9.56086 1.40654C9.72487 0.768222 10.3927 0.25 11.0523 0.25H22.0556C22.7146 0.25 23.25 0.784856 23.25 1.44467V1.83892C23.25 2.49857 22.7147 3.03359 22.0544 3.03359C20.959 3.03359 21.5455 1.97685 20.2614 2.04246H12.4443C11.7827 2.04246 11.1151 2.56024 10.9511 3.19884L7.56054 16.3979C7.39653 17.036 6.98719 17.0958 6.64648 16.53L6.64652 16.5299Z" fill="black"/>
</svg>
