<svg width="24" height="20" viewBox="0 0 24 20" fill="none" xmlns="http://www.w3.org/2000/svg">
<path fill-rule="evenodd" clip-rule="evenodd" d="M5.11665 8.72117H18.8834L18.8833 8.72122C20.0391 8.72042 21.1475 8.26189 21.9659 7.44576C22.7843 6.62964 23.246 5.52243 23.2499 4.36665C23.2499 3.20852 22.7899 2.09785 21.9709 1.27902C21.1521 0.460199 20.0414 0 18.8833 0H5.1166C3.95874 0.000798602 2.84843 0.461196 2.02982 1.27982C1.21103 2.09859 0.750831 3.20868 0.75 4.36659C0.753136 5.52259 1.21455 6.63019 2.03317 7.44651C2.85179 8.26283 3.96044 8.72117 5.11665 8.72117ZM3.02236 2.298C3.58206 1.75594 4.33771 1.46423 5.11665 1.48916H18.8834C19.6623 1.46422 20.4179 1.75595 20.9776 2.298C21.5374 2.84004 21.8534 3.58595 21.8534 4.36505C21.8534 5.14415 21.5373 5.89001 20.9776 6.43189C20.4179 6.97395 19.6623 7.26587 18.8834 7.24072H5.11665C4.33771 7.26588 3.58206 6.97393 3.02236 6.43189C2.46263 5.89006 2.14662 5.14415 2.14662 4.36505C2.14662 3.58595 2.46266 2.84004 3.02236 2.298Z" fill="black"/>
<path fill-rule="evenodd" clip-rule="evenodd" d="M5.11665 19.2296H18.8834C20.0408 19.2287 21.1505 18.7687 21.9691 17.9507C22.7877 17.1325 23.2483 16.0233 23.25 14.8658C23.2477 13.7094 22.7865 12.6009 21.9679 11.784C21.1493 10.9671 20.04 10.5083 18.8834 10.5083H5.1167C3.96023 10.5092 2.85142 10.9682 2.033 11.7849C1.21462 12.6018 0.753168 13.7096 0.750052 14.8658C0.750851 16.0235 1.21125 17.1334 2.03008 17.9516C2.84886 18.7698 3.95895 19.2296 5.11665 19.2296ZM3.02236 12.8064C3.58206 12.2643 4.33771 11.9724 5.11665 11.9976H18.8834C19.6623 11.9724 20.4179 12.2644 20.9776 12.8064C21.5374 13.3482 21.8534 14.0941 21.8534 14.8732C21.8534 15.6523 21.5373 16.3982 20.9776 16.9403C20.4179 17.4824 19.6623 17.7741 18.8834 17.7491H5.11665C4.33771 17.7741 3.58206 17.4823 3.02236 16.9403C2.46263 16.3982 2.14661 15.6523 2.14661 14.8732C2.14661 14.0941 2.46266 13.3483 3.02236 12.8064Z" fill="black"/>
</svg>
