<svg width="639" height="399" viewBox="0 0 639 399" fill="none" xmlns="http://www.w3.org/2000/svg">
<g clip-path="url(#clip0_1715_1726)">
<rect width="639" height="436" fill="url(#paint0_linear_1715_1726)"/>
<g clip-path="url(#clip1_1715_1726)">
<path opacity="0.4" d="M353.455 182.525C352.64 179.466 350.855 176.876 347.796 176.062C342.251 174.579 319.5 174.444 319.5 174.444C319.5 174.444 296.749 174.579 291.204 176.062C288.145 176.876 286.37 179.466 285.545 182.525C284.063 188.069 284 199.503 284 199.503C284 199.503 284.063 210.936 285.545 216.48C286.36 219.539 288.145 222.129 291.204 222.943C296.749 224.426 319.5 224.561 319.5 224.561C319.5 224.561 342.251 224.426 347.796 222.943C350.855 222.129 352.64 219.539 353.455 216.48C354.937 210.936 355 199.503 355 199.503C355 199.503 354.937 188.069 353.455 182.525Z" fill="black"/>
<path d="M330.98 199.498L312.186 189.056V209.939" fill="white"/>
</g>
<path d="M62.03 39H60.425V28.29H66.455V29.67H62.03V33.165H66.17V34.545H62.03V39ZM75.2948 34.95C75.2948 36.29 74.9498 37.325 74.2598 38.055C73.5698 38.785 72.6398 39.15 71.4698 39.15C70.7398 39.15 70.0898 38.985 69.5198 38.655C68.9598 38.325 68.5148 37.85 68.1848 37.23C67.8648 36.6 67.7048 35.84 67.7048 34.95C67.7048 33.61 68.0448 32.58 68.7248 31.86C69.4048 31.13 70.3348 30.765 71.5148 30.765C72.2548 30.765 72.9048 30.93 73.4648 31.26C74.0348 31.58 74.4798 32.05 74.7998 32.67C75.1298 33.29 75.2948 34.05 75.2948 34.95ZM69.3398 34.95C69.3398 35.86 69.5098 36.57 69.8498 37.08C70.1998 37.59 70.7498 37.845 71.4998 37.845C72.2498 37.845 72.7948 37.59 73.1348 37.08C73.4848 36.57 73.6598 35.86 73.6598 34.95C73.6598 34.03 73.4848 33.325 73.1348 32.835C72.7848 32.335 72.2348 32.085 71.4848 32.085C70.7348 32.085 70.1898 32.335 69.8498 32.835C69.5098 33.325 69.3398 34.03 69.3398 34.95ZM84.4354 34.95C84.4354 36.29 84.0904 37.325 83.4004 38.055C82.7104 38.785 81.7804 39.15 80.6104 39.15C79.8804 39.15 79.2304 38.985 78.6604 38.655C78.1004 38.325 77.6554 37.85 77.3254 37.23C77.0054 36.6 76.8454 35.84 76.8454 34.95C76.8454 33.61 77.1854 32.58 77.8654 31.86C78.5454 31.13 79.4754 30.765 80.6554 30.765C81.3954 30.765 82.0454 30.93 82.6054 31.26C83.1754 31.58 83.6204 32.05 83.9404 32.67C84.2704 33.29 84.4354 34.05 84.4354 34.95ZM78.4804 34.95C78.4804 35.86 78.6504 36.57 78.9904 37.08C79.3404 37.59 79.8904 37.845 80.6404 37.845C81.3904 37.845 81.9354 37.59 82.2754 37.08C82.6254 36.57 82.8004 35.86 82.8004 34.95C82.8004 34.03 82.6254 33.325 82.2754 32.835C81.9254 32.335 81.3754 32.085 80.6254 32.085C79.8754 32.085 79.3304 32.335 78.9904 32.835C78.6504 33.325 78.4804 34.03 78.4804 34.95ZM89.3611 37.86C89.5711 37.86 89.7861 37.845 90.0061 37.815C90.2261 37.775 90.4161 37.725 90.5761 37.665V38.865C90.3961 38.945 90.1611 39.01 89.8711 39.06C89.5911 39.12 89.3061 39.15 89.0161 39.15C88.5761 39.15 88.1711 39.075 87.8011 38.925C87.4311 38.775 87.1361 38.515 86.9161 38.145C86.7061 37.775 86.6011 37.26 86.6011 36.6V32.13H85.4761V31.41L86.6611 30.81L87.2161 29.1H88.1911V30.915H90.5011V32.13H88.1911V36.57C88.1911 37.01 88.2961 37.335 88.5061 37.545C88.7261 37.755 89.0111 37.86 89.3611 37.86ZM93.9632 37.425C93.8332 37.955 93.6482 38.535 93.4082 39.165C93.1682 39.805 92.9232 40.395 92.6732 40.935H91.5182C91.6582 40.355 91.7982 39.725 91.9382 39.045C92.0782 38.375 92.1882 37.78 92.2682 37.26H93.8582L93.9632 37.425ZM107.046 39L105.906 35.91H101.766L100.626 39H98.9463L103.011 28.245H104.691L108.741 39H107.046ZM104.376 31.485C104.346 31.375 104.291 31.21 104.211 30.99C104.141 30.77 104.071 30.54 104.001 30.3C103.931 30.06 103.876 29.865 103.836 29.715C103.756 30.025 103.666 30.355 103.566 30.705C103.466 31.055 103.386 31.315 103.326 31.485L102.246 34.5H105.456L104.376 31.485ZM114.101 30.765C115.041 30.765 115.761 31 116.261 31.47C116.761 31.94 117.011 32.695 117.011 33.735V39H115.436V33.96C115.436 32.7 114.881 32.07 113.771 32.07C112.941 32.07 112.371 32.315 112.061 32.805C111.751 33.295 111.596 34 111.596 34.92V39H110.006V30.915H111.266L111.491 31.995H111.581C111.841 31.575 112.196 31.265 112.646 31.065C113.106 30.865 113.591 30.765 114.101 30.765ZM121.029 33.3C121.029 33.5 121.019 33.74 120.999 34.02C120.979 34.3 120.964 34.55 120.954 34.77H120.999C121.109 34.62 121.259 34.425 121.449 34.185C121.649 33.935 121.824 33.73 121.974 33.57L124.449 30.915H126.294L123.039 34.38L126.504 39H124.629L121.959 35.385L121.029 36.165V39H119.454V27.6H121.029V33.3ZM129.423 39H127.833V27.6H129.423V39ZM135.1 30.765C136.16 30.765 136.995 31.095 137.605 31.755C138.215 32.405 138.52 33.295 138.52 34.425V35.295H133.09C133.11 36.125 133.325 36.76 133.735 37.2C134.155 37.64 134.74 37.86 135.49 37.86C136.01 37.86 136.47 37.815 136.87 37.725C137.28 37.625 137.7 37.48 138.13 37.29V38.61C137.72 38.79 137.31 38.925 136.9 39.015C136.49 39.105 136 39.15 135.43 39.15C134.64 39.15 133.945 38.995 133.345 38.685C132.755 38.375 132.29 37.915 131.95 37.305C131.62 36.685 131.455 35.925 131.455 35.025C131.455 34.115 131.605 33.345 131.905 32.715C132.215 32.085 132.64 31.605 133.18 31.275C133.73 30.935 134.37 30.765 135.1 30.765ZM135.1 31.995C134.53 31.995 134.07 32.18 133.72 32.55C133.38 32.92 133.18 33.445 133.12 34.125H136.93C136.92 33.495 136.765 32.985 136.465 32.595C136.175 32.195 135.72 31.995 135.1 31.995ZM147.745 28.125C148.565 28.125 149.22 28.33 149.71 28.74C150.21 29.14 150.46 29.71 150.46 30.45C150.46 31.09 150.255 31.635 149.845 32.085C149.435 32.535 148.925 32.94 148.315 33.3L150.97 35.865C151.21 35.545 151.41 35.19 151.57 34.8C151.73 34.4 151.865 33.975 151.975 33.525H153.595C153.445 34.145 153.24 34.745 152.98 35.325C152.72 35.895 152.395 36.41 152.005 36.87L154.195 39H152.125L150.955 37.875C150.495 38.255 149.98 38.565 149.41 38.805C148.85 39.035 148.185 39.15 147.415 39.15C146.325 39.15 145.465 38.89 144.835 38.37C144.205 37.84 143.89 37.11 143.89 36.18C143.89 35.42 144.085 34.81 144.475 34.35C144.875 33.88 145.415 33.45 146.095 33.06C145.755 32.68 145.465 32.29 145.225 31.89C144.985 31.48 144.865 31.02 144.865 30.51C144.865 29.77 145.125 29.19 145.645 28.77C146.165 28.34 146.865 28.125 147.745 28.125ZM147.7 29.4C147.33 29.4 147.02 29.5 146.77 29.7C146.52 29.89 146.395 30.17 146.395 30.54C146.395 30.87 146.48 31.18 146.65 31.47C146.82 31.75 147.06 32.055 147.37 32.385C147.92 32.075 148.315 31.78 148.555 31.5C148.805 31.22 148.93 30.89 148.93 30.51C148.93 30.17 148.815 29.9 148.585 29.7C148.355 29.5 148.06 29.4 147.7 29.4ZM147.04 34.035C146.58 34.325 146.215 34.625 145.945 34.935C145.685 35.235 145.555 35.62 145.555 36.09C145.555 36.6 145.73 37.01 146.08 37.32C146.44 37.62 146.91 37.77 147.49 37.77C148.04 37.77 148.515 37.685 148.915 37.515C149.325 37.345 149.675 37.135 149.965 36.885L147.04 34.035ZM159.536 39V28.29H161.156V37.605H165.731V39H159.536ZM170.578 30.765C171.638 30.765 172.473 31.095 173.083 31.755C173.693 32.405 173.998 33.295 173.998 34.425V35.295H168.568C168.588 36.125 168.803 36.76 169.213 37.2C169.633 37.64 170.218 37.86 170.968 37.86C171.488 37.86 171.948 37.815 172.348 37.725C172.758 37.625 173.178 37.48 173.608 37.29V38.61C173.198 38.79 172.788 38.925 172.378 39.015C171.968 39.105 171.478 39.15 170.908 39.15C170.118 39.15 169.423 38.995 168.823 38.685C168.233 38.375 167.768 37.915 167.428 37.305C167.098 36.685 166.933 35.925 166.933 35.025C166.933 34.115 167.083 33.345 167.383 32.715C167.693 32.085 168.118 31.605 168.658 31.275C169.208 30.935 169.848 30.765 170.578 30.765ZM170.578 31.995C170.008 31.995 169.548 32.18 169.198 32.55C168.858 32.92 168.658 33.445 168.598 34.125H172.408C172.398 33.495 172.243 32.985 171.943 32.595C171.653 32.195 171.198 31.995 170.578 31.995ZM178.772 30.765C179.842 30.765 180.667 31.17 181.247 31.98H181.322L181.502 30.915H182.792V39.105C182.792 40.255 182.482 41.125 181.862 41.715C181.252 42.305 180.317 42.6 179.057 42.6C178.467 42.6 177.927 42.56 177.437 42.48C176.957 42.4 176.512 42.275 176.102 42.105V40.71C176.962 41.13 177.977 41.34 179.147 41.34C179.807 41.34 180.317 41.15 180.677 40.77C181.037 40.4 181.217 39.875 181.217 39.195V38.925C181.217 38.795 181.222 38.625 181.232 38.415C181.242 38.205 181.252 38.045 181.262 37.935H181.202C180.932 38.355 180.592 38.665 180.182 38.865C179.772 39.055 179.302 39.15 178.772 39.15C177.752 39.15 176.952 38.785 176.372 38.055C175.802 37.315 175.517 36.29 175.517 34.98C175.517 33.68 175.802 32.655 176.372 31.905C176.952 31.145 177.752 30.765 178.772 30.765ZM179.102 32.085C178.472 32.085 177.987 32.335 177.647 32.835C177.317 33.335 177.152 34.055 177.152 34.995C177.152 35.935 177.317 36.65 177.647 37.14C177.987 37.63 178.482 37.875 179.132 37.875C179.872 37.875 180.412 37.675 180.752 37.275C181.102 36.865 181.277 36.2 181.277 35.28V34.98C181.277 33.95 181.102 33.21 180.752 32.76C180.402 32.31 179.852 32.085 179.102 32.085ZM197.161 28.29L193.381 39H191.701L187.936 28.29H189.601L191.896 35.01C192.026 35.37 192.151 35.765 192.271 36.195C192.391 36.625 192.481 37.015 192.541 37.365C192.601 37.015 192.691 36.625 192.811 36.195C192.931 35.765 193.056 35.365 193.186 34.995L195.481 28.29H197.161ZM201.296 30.765C202.356 30.765 203.191 31.095 203.801 31.755C204.411 32.405 204.716 33.295 204.716 34.425V35.295H199.286C199.306 36.125 199.521 36.76 199.931 37.2C200.351 37.64 200.936 37.86 201.686 37.86C202.206 37.86 202.666 37.815 203.066 37.725C203.476 37.625 203.896 37.48 204.326 37.29V38.61C203.916 38.79 203.506 38.925 203.096 39.015C202.686 39.105 202.196 39.15 201.626 39.15C200.836 39.15 200.141 38.995 199.541 38.685C198.951 38.375 198.486 37.915 198.146 37.305C197.816 36.685 197.651 35.925 197.651 35.025C197.651 34.115 197.801 33.345 198.101 32.715C198.411 32.085 198.836 31.605 199.376 31.275C199.926 30.935 200.566 30.765 201.296 30.765ZM201.296 31.995C200.726 31.995 200.266 32.18 199.916 32.55C199.576 32.92 199.376 33.445 199.316 34.125H203.126C203.116 33.495 202.961 32.985 202.661 32.595C202.371 32.195 201.916 31.995 201.296 31.995ZM207.51 27.84C207.75 27.84 207.96 27.91 208.14 28.05C208.32 28.19 208.41 28.425 208.41 28.755C208.41 29.075 208.32 29.31 208.14 29.46C207.96 29.6 207.75 29.67 207.51 29.67C207.25 29.67 207.03 29.6 206.85 29.46C206.68 29.31 206.595 29.075 206.595 28.755C206.595 28.425 206.68 28.19 206.85 28.05C207.03 27.91 207.25 27.84 207.51 27.84ZM208.29 30.915V39H206.7V30.915H208.29ZM214.882 30.765C215.822 30.765 216.542 31 217.042 31.47C217.542 31.94 217.792 32.695 217.792 33.735V39H216.217V33.96C216.217 32.7 215.662 32.07 214.552 32.07C213.722 32.07 213.152 32.315 212.842 32.805C212.532 33.295 212.377 34 212.377 34.92V39H210.787V30.915H212.047L212.272 31.995H212.362C212.622 31.575 212.977 31.265 213.427 31.065C213.887 30.865 214.372 30.765 214.882 30.765ZM228.887 29.535C227.817 29.535 226.982 29.905 226.382 30.645C225.782 31.375 225.482 32.38 225.482 33.66C225.482 34.93 225.762 35.93 226.322 36.66C226.882 37.39 227.732 37.755 228.872 37.755C229.332 37.755 229.772 37.715 230.192 37.635C230.622 37.545 231.057 37.43 231.497 37.29V38.685C231.077 38.845 230.647 38.96 230.207 39.03C229.777 39.11 229.267 39.15 228.677 39.15C227.577 39.15 226.667 38.925 225.947 38.475C225.227 38.015 224.687 37.375 224.327 36.555C223.967 35.725 223.787 34.755 223.787 33.645C223.787 32.565 223.982 31.61 224.372 30.78C224.772 29.95 225.352 29.305 226.112 28.845C226.872 28.375 227.802 28.14 228.902 28.14C229.442 28.14 229.967 28.2 230.477 28.32C230.997 28.43 231.472 28.59 231.902 28.8L231.302 30.15C230.952 29.99 230.572 29.85 230.162 29.73C229.762 29.6 229.337 29.535 228.887 29.535ZM236.804 30.765C237.864 30.765 238.699 31.095 239.309 31.755C239.919 32.405 240.224 33.295 240.224 34.425V35.295H234.794C234.814 36.125 235.029 36.76 235.439 37.2C235.859 37.64 236.444 37.86 237.194 37.86C237.714 37.86 238.174 37.815 238.574 37.725C238.984 37.625 239.404 37.48 239.834 37.29V38.61C239.424 38.79 239.014 38.925 238.604 39.015C238.194 39.105 237.704 39.15 237.134 39.15C236.344 39.15 235.649 38.995 235.049 38.685C234.459 38.375 233.994 37.915 233.654 37.305C233.324 36.685 233.159 35.925 233.159 35.025C233.159 34.115 233.309 33.345 233.609 32.715C233.919 32.085 234.344 31.605 234.884 31.275C235.434 30.935 236.074 30.765 236.804 30.765ZM236.804 31.995C236.234 31.995 235.774 32.18 235.424 32.55C235.084 32.92 234.884 33.445 234.824 34.125H238.634C238.624 33.495 238.469 32.985 238.169 32.595C237.879 32.195 237.424 31.995 236.804 31.995ZM246.303 30.765C247.243 30.765 247.963 31 248.463 31.47C248.963 31.94 249.213 32.695 249.213 33.735V39H247.638V33.96C247.638 32.7 247.083 32.07 245.973 32.07C245.143 32.07 244.573 32.315 244.263 32.805C243.953 33.295 243.798 34 243.798 34.92V39H242.208V30.915H243.468L243.693 31.995H243.783C244.043 31.575 244.398 31.265 244.848 31.065C245.308 30.865 245.793 30.765 246.303 30.765ZM254.566 37.86C254.776 37.86 254.991 37.845 255.211 37.815C255.431 37.775 255.621 37.725 255.781 37.665V38.865C255.601 38.945 255.366 39.01 255.076 39.06C254.796 39.12 254.511 39.15 254.221 39.15C253.781 39.15 253.376 39.075 253.006 38.925C252.636 38.775 252.341 38.515 252.121 38.145C251.911 37.775 251.806 37.26 251.806 36.6V32.13H250.681V31.41L251.866 30.81L252.421 29.1H253.396V30.915H255.706V32.13H253.396V36.57C253.396 37.01 253.501 37.335 253.711 37.545C253.931 37.755 254.216 37.86 254.566 37.86ZM260.578 30.765C261.638 30.765 262.473 31.095 263.083 31.755C263.693 32.405 263.998 33.295 263.998 34.425V35.295H258.568C258.588 36.125 258.803 36.76 259.213 37.2C259.633 37.64 260.218 37.86 260.968 37.86C261.488 37.86 261.948 37.815 262.348 37.725C262.758 37.625 263.178 37.48 263.608 37.29V38.61C263.198 38.79 262.788 38.925 262.378 39.015C261.968 39.105 261.478 39.15 260.908 39.15C260.118 39.15 259.423 38.995 258.823 38.685C258.233 38.375 257.768 37.915 257.428 37.305C257.098 36.685 256.933 35.925 256.933 35.025C256.933 34.115 257.083 33.345 257.383 32.715C257.693 32.085 258.118 31.605 258.658 31.275C259.208 30.935 259.848 30.765 260.578 30.765ZM260.578 31.995C260.008 31.995 259.548 32.18 259.198 32.55C258.858 32.92 258.658 33.445 258.598 34.125H262.408C262.398 33.495 262.243 32.985 261.943 32.595C261.653 32.195 261.198 31.995 260.578 31.995ZM269.972 30.765C270.112 30.765 270.262 30.775 270.422 30.795C270.592 30.805 270.737 30.82 270.857 30.84L270.692 32.325C270.432 32.255 270.162 32.22 269.882 32.22C269.482 32.22 269.102 32.32 268.742 32.52C268.392 32.72 268.107 33.01 267.887 33.39C267.677 33.76 267.572 34.21 267.572 34.74V39H265.982V30.915H267.242L267.452 32.355H267.512C267.772 31.925 268.107 31.555 268.517 31.245C268.927 30.925 269.412 30.765 269.972 30.765Z" fill="white"/>
<path d="M592.06 52.684C592.06 53.444 591.784 54.04 591.232 54.472C590.68 54.904 589.924 55.12 588.964 55.12C588.5 55.12 588.06 55.08 587.644 55C587.236 54.928 586.888 54.82 586.6 54.676V53.452C586.92 53.596 587.296 53.728 587.728 53.848C588.16 53.96 588.6 54.016 589.048 54.016C589.624 54.016 590.056 53.904 590.344 53.68C590.632 53.456 590.776 53.156 590.776 52.78C590.776 52.516 590.708 52.296 590.572 52.12C590.444 51.936 590.24 51.768 589.96 51.616C589.68 51.464 589.312 51.296 588.856 51.112C588.432 50.952 588.056 50.764 587.728 50.548C587.408 50.332 587.156 50.064 586.972 49.744C586.788 49.424 586.696 49.032 586.696 48.568C586.696 47.864 586.952 47.312 587.464 46.912C587.976 46.512 588.648 46.312 589.48 46.312C589.944 46.312 590.372 46.36 590.764 46.456C591.164 46.544 591.544 46.668 591.904 46.828L591.496 47.896C591.168 47.76 590.832 47.648 590.488 47.56C590.152 47.472 589.804 47.428 589.444 47.428C588.972 47.428 588.612 47.532 588.364 47.74C588.116 47.948 587.992 48.22 587.992 48.556C587.992 48.82 588.052 49.044 588.172 49.228C588.292 49.404 588.484 49.564 588.748 49.708C589.012 49.852 589.36 50.012 589.792 50.188C590.272 50.38 590.68 50.584 591.016 50.8C591.36 51.008 591.62 51.264 591.796 51.568C591.972 51.864 592.06 52.236 592.06 52.684ZM594.866 48.316C594.866 48.524 594.858 48.728 594.842 48.928C594.826 49.12 594.81 49.28 594.794 49.408H594.878C595.086 49.072 595.362 48.824 595.706 48.664C596.058 48.504 596.438 48.424 596.846 48.424C597.606 48.424 598.186 48.612 598.586 48.988C598.994 49.364 599.198 49.964 599.198 50.788V55H597.938V50.968C597.938 49.96 597.494 49.456 596.606 49.456C595.942 49.456 595.486 49.656 595.238 50.056C594.99 50.448 594.866 51.012 594.866 51.748V55H593.594V45.88H594.866V48.316ZM603.66 48.412C604.468 48.412 605.072 48.592 605.472 48.952C605.88 49.304 606.084 49.86 606.084 50.62V55H605.184L604.932 54.1H604.884C604.604 54.452 604.308 54.712 603.996 54.88C603.692 55.04 603.268 55.12 602.724 55.12C602.14 55.12 601.656 54.964 601.272 54.652C600.888 54.332 600.696 53.836 600.696 53.164C600.696 52.508 600.944 52.008 601.44 51.664C601.936 51.32 602.7 51.132 603.732 51.1L604.836 51.064V50.704C604.836 50.232 604.728 49.9 604.512 49.708C604.296 49.508 603.992 49.408 603.6 49.408C603.272 49.408 602.956 49.456 602.652 49.552C602.348 49.648 602.056 49.764 601.776 49.9L601.368 48.976C601.672 48.816 602.02 48.684 602.412 48.58C602.812 48.468 603.228 48.412 603.66 48.412ZM603.96 51.916C603.224 51.948 602.712 52.072 602.424 52.288C602.144 52.496 602.004 52.792 602.004 53.176C602.004 53.512 602.104 53.756 602.304 53.908C602.504 54.06 602.764 54.136 603.084 54.136C603.58 54.136 603.992 53.996 604.32 53.716C604.656 53.436 604.824 53.016 604.824 52.456V51.892L603.96 51.916ZM611.235 48.412C611.347 48.412 611.467 48.42 611.595 48.436C611.731 48.444 611.847 48.456 611.943 48.472L611.811 49.66C611.603 49.604 611.387 49.576 611.163 49.576C610.843 49.576 610.539 49.656 610.251 49.816C609.971 49.976 609.743 50.208 609.567 50.512C609.399 50.808 609.315 51.168 609.315 51.592V55H608.043V48.532H609.051L609.219 49.684H609.267C609.475 49.34 609.743 49.044 610.071 48.796C610.399 48.54 610.787 48.412 611.235 48.412ZM615.45 48.412C616.298 48.412 616.966 48.676 617.454 49.204C617.942 49.724 618.186 50.436 618.186 51.34V52.036H613.842C613.858 52.7 614.03 53.208 614.358 53.56C614.694 53.912 615.162 54.088 615.762 54.088C616.178 54.088 616.546 54.052 616.866 53.98C617.194 53.9 617.53 53.784 617.874 53.632V54.688C617.546 54.832 617.218 54.94 616.89 55.012C616.562 55.084 616.17 55.12 615.714 55.12C615.082 55.12 614.526 54.996 614.046 54.748C613.574 54.5 613.202 54.132 612.93 53.644C612.666 53.148 612.534 52.54 612.534 51.82C612.534 51.092 612.654 50.476 612.894 49.972C613.142 49.468 613.482 49.084 613.914 48.82C614.354 48.548 614.866 48.412 615.45 48.412ZM615.45 49.396C614.994 49.396 614.626 49.544 614.346 49.84C614.074 50.136 613.914 50.556 613.866 51.1H616.914C616.906 50.596 616.782 50.188 616.542 49.876C616.31 49.556 615.946 49.396 615.45 49.396Z" fill="white"/>
<path d="M604.075 23.4V19.1973L611.433 26.5545L604.075 33.9117V29.605C600.364 29.5389 596.425 30.5967 593.819 33.3828C593.309 33.7323 592.175 35.7723 592.667 34.2234C593.573 30.1339 596.142 26.2239 600.09 24.5239C601.346 23.9573 602.697 23.5984 604.066 23.4H604.075Z" fill="white"/>
<path d="M508.184 46.432L505.928 55H504.548L503.036 49.708C502.98 49.516 502.92 49.3 502.856 49.06C502.8 48.82 502.748 48.596 502.7 48.388C502.652 48.172 502.62 48.02 502.604 47.932C502.596 48.02 502.572 48.168 502.532 48.376C502.492 48.584 502.44 48.812 502.376 49.06C502.32 49.308 502.264 49.536 502.208 49.744L500.72 55H499.34L497.096 46.432H498.428L499.688 51.496C499.776 51.84 499.856 52.204 499.928 52.588C500 52.964 500.056 53.3 500.096 53.596C500.136 53.292 500.196 52.944 500.276 52.552C500.356 52.16 500.444 51.808 500.54 51.496L501.968 46.432H503.264L504.74 51.52C504.836 51.84 504.924 52.2 505.004 52.6C505.084 52.992 505.144 53.324 505.184 53.596C505.224 53.308 505.28 52.972 505.352 52.588C505.432 52.204 505.516 51.84 505.604 51.496L506.864 46.432H508.184ZM511.567 48.412C512.375 48.412 512.979 48.592 513.379 48.952C513.787 49.304 513.991 49.86 513.991 50.62V55H513.091L512.839 54.1H512.791C512.511 54.452 512.215 54.712 511.903 54.88C511.599 55.04 511.175 55.12 510.631 55.12C510.047 55.12 509.563 54.964 509.179 54.652C508.795 54.332 508.603 53.836 508.603 53.164C508.603 52.508 508.851 52.008 509.347 51.664C509.843 51.32 510.607 51.132 511.639 51.1L512.743 51.064V50.704C512.743 50.232 512.635 49.9 512.419 49.708C512.203 49.508 511.899 49.408 511.507 49.408C511.179 49.408 510.863 49.456 510.559 49.552C510.255 49.648 509.963 49.764 509.683 49.9L509.275 48.976C509.579 48.816 509.927 48.684 510.319 48.58C510.719 48.468 511.135 48.412 511.567 48.412ZM511.867 51.916C511.131 51.948 510.619 52.072 510.331 52.288C510.051 52.496 509.911 52.792 509.911 53.176C509.911 53.512 510.011 53.756 510.211 53.908C510.411 54.06 510.671 54.136 510.991 54.136C511.487 54.136 511.899 53.996 512.227 53.716C512.563 53.436 512.731 53.016 512.731 52.456V51.892L511.867 51.916ZM518.277 54.088C518.445 54.088 518.617 54.076 518.793 54.052C518.969 54.02 519.121 53.98 519.249 53.932V54.892C519.105 54.956 518.917 55.008 518.685 55.048C518.461 55.096 518.233 55.12 518.001 55.12C517.649 55.12 517.325 55.06 517.029 54.94C516.733 54.82 516.497 54.612 516.321 54.316C516.153 54.02 516.069 53.608 516.069 53.08V49.504H515.169V48.928L516.117 48.448L516.561 47.08H517.341V48.532H519.189V49.504H517.341V53.056C517.341 53.408 517.425 53.668 517.593 53.836C517.769 54.004 517.997 54.088 518.277 54.088ZM523.147 55.12C522.251 55.12 521.531 54.856 520.987 54.328C520.443 53.792 520.171 52.952 520.171 51.808C520.171 51.008 520.303 50.36 520.567 49.864C520.831 49.368 521.195 49.004 521.659 48.772C522.123 48.532 522.651 48.412 523.243 48.412C523.603 48.412 523.939 48.452 524.251 48.532C524.571 48.604 524.835 48.688 525.043 48.784L524.659 49.816C524.435 49.728 524.195 49.652 523.939 49.588C523.691 49.524 523.455 49.492 523.231 49.492C522.063 49.492 521.479 50.26 521.479 51.796C521.479 52.532 521.623 53.092 521.911 53.476C522.199 53.86 522.623 54.052 523.183 54.052C523.543 54.052 523.859 54.012 524.131 53.932C524.411 53.852 524.667 53.748 524.899 53.62V54.724C524.667 54.86 524.415 54.96 524.143 55.024C523.871 55.088 523.539 55.12 523.147 55.12ZM527.698 48.316C527.698 48.524 527.69 48.728 527.674 48.928C527.658 49.12 527.642 49.28 527.626 49.408H527.71C527.918 49.072 528.194 48.824 528.538 48.664C528.89 48.504 529.27 48.424 529.678 48.424C530.438 48.424 531.018 48.612 531.418 48.988C531.826 49.364 532.03 49.964 532.03 50.788V55H530.77V50.968C530.77 49.96 530.326 49.456 529.438 49.456C528.774 49.456 528.318 49.656 528.07 50.056C527.822 50.448 527.698 51.012 527.698 51.748V55H526.426V45.88H527.698V48.316ZM538.373 55H537.101V45.88H538.373V55ZM542.879 48.412C543.687 48.412 544.291 48.592 544.691 48.952C545.099 49.304 545.303 49.86 545.303 50.62V55H544.403L544.151 54.1H544.103C543.823 54.452 543.527 54.712 543.215 54.88C542.911 55.04 542.487 55.12 541.943 55.12C541.359 55.12 540.875 54.964 540.491 54.652C540.107 54.332 539.915 53.836 539.915 53.164C539.915 52.508 540.163 52.008 540.659 51.664C541.155 51.32 541.919 51.132 542.951 51.1L544.055 51.064V50.704C544.055 50.232 543.947 49.9 543.731 49.708C543.515 49.508 543.211 49.408 542.819 49.408C542.491 49.408 542.175 49.456 541.871 49.552C541.567 49.648 541.275 49.764 540.995 49.9L540.587 48.976C540.891 48.816 541.239 48.684 541.631 48.58C542.031 48.468 542.447 48.412 542.879 48.412ZM543.179 51.916C542.443 51.948 541.931 52.072 541.643 52.288C541.363 52.496 541.223 52.792 541.223 53.176C541.223 53.512 541.323 53.756 541.523 53.908C541.723 54.06 541.983 54.136 542.303 54.136C542.799 54.136 543.211 53.996 543.539 53.716C543.875 53.436 544.043 53.016 544.043 52.456V51.892L543.179 51.916ZM549.59 54.088C549.758 54.088 549.93 54.076 550.106 54.052C550.282 54.02 550.434 53.98 550.562 53.932V54.892C550.418 54.956 550.23 55.008 549.998 55.048C549.774 55.096 549.546 55.12 549.314 55.12C548.962 55.12 548.638 55.06 548.342 54.94C548.046 54.82 547.81 54.612 547.634 54.316C547.466 54.02 547.382 53.608 547.382 53.08V49.504H546.482V48.928L547.43 48.448L547.874 47.08H548.654V48.532H550.502V49.504H548.654V53.056C548.654 53.408 548.738 53.668 548.906 53.836C549.082 54.004 549.31 54.088 549.59 54.088ZM554.399 48.412C555.247 48.412 555.915 48.676 556.403 49.204C556.891 49.724 557.135 50.436 557.135 51.34V52.036H552.791C552.807 52.7 552.979 53.208 553.307 53.56C553.643 53.912 554.111 54.088 554.711 54.088C555.127 54.088 555.495 54.052 555.815 53.98C556.143 53.9 556.479 53.784 556.823 53.632V54.688C556.495 54.832 556.167 54.94 555.839 55.012C555.511 55.084 555.119 55.12 554.663 55.12C554.031 55.12 553.475 54.996 552.995 54.748C552.523 54.5 552.151 54.132 551.879 53.644C551.615 53.148 551.483 52.54 551.483 51.82C551.483 51.092 551.603 50.476 551.843 49.972C552.091 49.468 552.431 49.084 552.863 48.82C553.303 48.548 553.815 48.412 554.399 48.412ZM554.399 49.396C553.943 49.396 553.575 49.544 553.295 49.84C553.023 50.136 552.863 50.556 552.815 51.1H555.863C555.855 50.596 555.731 50.188 555.491 49.876C555.259 49.556 554.895 49.396 554.399 49.396ZM561.915 48.412C562.027 48.412 562.147 48.42 562.275 48.436C562.411 48.444 562.527 48.456 562.623 48.472L562.491 49.66C562.283 49.604 562.067 49.576 561.843 49.576C561.523 49.576 561.219 49.656 560.931 49.816C560.651 49.976 560.423 50.208 560.247 50.512C560.079 50.808 559.995 51.168 559.995 51.592V55H558.723V48.532H559.731L559.899 49.684H559.947C560.155 49.34 560.423 49.044 560.751 48.796C561.079 48.54 561.467 48.412 561.915 48.412Z" fill="white"/>
<path d="M529.998 17.5538C524.775 17.5538 520.554 21.7754 520.554 26.9982C520.554 32.2116 524.775 36.4427 529.998 36.4427C535.212 36.4427 539.443 32.2116 539.443 26.9982C539.443 21.7754 535.212 17.5538 529.998 17.5538ZM528.109 27.9616V21.3316H529.998V26.866L534.815 29.6521L533.87 31.286L528.109 27.9616Z" fill="white"/>
<path opacity="0.6" d="M0 344H171C172.657 344 174 345.343 174 347V399H0V344Z" fill="black"/>
<path d="M32.116 366.718L29.672 376H28.177L26.539 370.267C26.4783 370.059 26.4133 369.825 26.344 369.565C26.2833 369.305 26.227 369.062 26.175 368.837C26.123 368.603 26.0883 368.438 26.071 368.343C26.0623 368.438 26.0363 368.599 25.993 368.824C25.9497 369.049 25.8933 369.296 25.824 369.565C25.7633 369.834 25.7027 370.081 25.642 370.306L24.03 376H22.535L20.104 366.718H21.547L22.912 372.204C23.0073 372.577 23.094 372.971 23.172 373.387C23.25 373.794 23.3107 374.158 23.354 374.479C23.3973 374.15 23.4623 373.773 23.549 373.348C23.6357 372.923 23.731 372.542 23.835 372.204L25.382 366.718H26.786L28.385 372.23C28.489 372.577 28.5843 372.967 28.671 373.4C28.7577 373.825 28.8227 374.184 28.866 374.479C28.9093 374.167 28.97 373.803 29.048 373.387C29.1347 372.971 29.2257 372.577 29.321 372.204L30.686 366.718H32.116ZM35.7804 368.863C36.6557 368.863 37.31 369.058 37.7434 369.448C38.1854 369.829 38.4064 370.432 38.4064 371.255V376H37.4314L37.1584 375.025H37.1064C36.803 375.406 36.4824 375.688 36.1444 375.87C35.815 376.043 35.3557 376.13 34.7664 376.13C34.1337 376.13 33.6094 375.961 33.1934 375.623C32.7774 375.276 32.5694 374.739 32.5694 374.011C32.5694 373.3 32.838 372.759 33.3754 372.386C33.9127 372.013 34.7404 371.81 35.8584 371.775L37.0544 371.736V371.346C37.0544 370.835 36.9374 370.475 36.7034 370.267C36.4694 370.05 36.14 369.942 35.7154 369.942C35.36 369.942 35.0177 369.994 34.6884 370.098C34.359 370.202 34.0427 370.328 33.7394 370.475L33.2974 369.474C33.6267 369.301 34.0037 369.158 34.4284 369.045C34.8617 368.924 35.3124 368.863 35.7804 368.863ZM36.1054 372.659C35.308 372.694 34.7534 372.828 34.4414 373.062C34.138 373.287 33.9864 373.608 33.9864 374.024C33.9864 374.388 34.0947 374.652 34.3114 374.817C34.528 374.982 34.8097 375.064 35.1564 375.064C35.6937 375.064 36.14 374.912 36.4954 374.609C36.8594 374.306 37.0414 373.851 37.0414 373.244V372.633L36.1054 372.659ZM43.0502 375.012C43.2322 375.012 43.4186 374.999 43.6092 374.973C43.7999 374.938 43.9646 374.895 44.1032 374.843V375.883C43.9472 375.952 43.7436 376.009 43.4922 376.052C43.2496 376.104 43.0026 376.13 42.7512 376.13C42.3699 376.13 42.0189 376.065 41.6982 375.935C41.3776 375.805 41.1219 375.58 40.9312 375.259C40.7492 374.938 40.6582 374.492 40.6582 373.92V370.046H39.6832V369.422L40.7102 368.902L41.1912 367.42H42.0362V368.993H44.0382V370.046H42.0362V373.894C42.0362 374.275 42.1272 374.557 42.3092 374.739C42.4999 374.921 42.7469 375.012 43.0502 375.012ZM48.3258 376.13C47.3551 376.13 46.5751 375.844 45.9858 375.272C45.3964 374.691 45.1018 373.781 45.1018 372.542C45.1018 371.675 45.2448 370.973 45.5308 370.436C45.8168 369.899 46.2111 369.504 46.7138 369.253C47.2164 368.993 47.7884 368.863 48.4298 368.863C48.8198 368.863 49.1838 368.906 49.5218 368.993C49.8684 369.071 50.1544 369.162 50.3798 369.266L49.9638 370.384C49.7211 370.289 49.4611 370.206 49.1838 370.137C48.9151 370.068 48.6594 370.033 48.4168 370.033C47.1514 370.033 46.5188 370.865 46.5188 372.529C46.5188 373.326 46.6748 373.933 46.9868 374.349C47.2988 374.765 47.7581 374.973 48.3648 374.973C48.7548 374.973 49.0971 374.93 49.3918 374.843C49.6951 374.756 49.9724 374.644 50.2238 374.505V375.701C49.9724 375.848 49.6994 375.957 49.4048 376.026C49.1101 376.095 48.7504 376.13 48.3258 376.13ZM53.2558 368.759C53.2558 368.984 53.2472 369.205 53.2298 369.422C53.2125 369.63 53.1952 369.803 53.1778 369.942H53.2688C53.4942 369.578 53.7932 369.309 54.1658 369.136C54.5472 368.963 54.9588 368.876 55.4008 368.876C56.2242 368.876 56.8525 369.08 57.2858 369.487C57.7278 369.894 57.9488 370.544 57.9488 371.437V376H56.5838V371.632C56.5838 370.54 56.1028 369.994 55.1408 369.994C54.4215 369.994 53.9275 370.211 53.6588 370.644C53.3902 371.069 53.2558 371.68 53.2558 372.477V376H51.8778V366.12H53.2558V368.759ZM69.6183 372.49C69.6183 373.651 69.3193 374.548 68.7213 375.181C68.1233 375.814 67.3173 376.13 66.3033 376.13C65.6706 376.13 65.1073 375.987 64.6133 375.701C64.1279 375.415 63.7423 375.003 63.4563 374.466C63.1789 373.92 63.0403 373.261 63.0403 372.49C63.0403 371.329 63.3349 370.436 63.9243 369.812C64.5136 369.179 65.3196 368.863 66.3423 368.863C66.9836 368.863 67.5469 369.006 68.0323 369.292C68.5263 369.569 68.9119 369.977 69.1893 370.514C69.4753 371.051 69.6183 371.71 69.6183 372.49ZM64.4573 372.49C64.4573 373.279 64.6046 373.894 64.8993 374.336C65.2026 374.778 65.6793 374.999 66.3293 374.999C66.9793 374.999 67.4516 374.778 67.7463 374.336C68.0496 373.894 68.2013 373.279 68.2013 372.49C68.2013 371.693 68.0496 371.082 67.7463 370.657C67.4429 370.224 66.9663 370.007 66.3163 370.007C65.6663 370.007 65.1939 370.224 64.8993 370.657C64.6046 371.082 64.4573 371.693 64.4573 372.49ZM74.9141 368.863C75.7288 368.863 76.3528 369.067 76.7861 369.474C77.2195 369.881 77.4361 370.536 77.4361 371.437V376H76.0711V371.632C76.0711 370.54 75.5901 369.994 74.6281 369.994C73.9088 369.994 73.4148 370.206 73.1461 370.631C72.8775 371.056 72.7431 371.667 72.7431 372.464V376H71.3651V368.993H72.4571L72.6521 369.929H72.7301C72.9555 369.565 73.2631 369.296 73.6531 369.123C74.0518 368.95 74.4721 368.863 74.9141 368.863Z" fill="white"/>
<path d="M110.014 367.402C109.799 366.583 109.17 365.937 108.372 365.717C106.914 365.307 101.083 365.307 101.083 365.307C101.083 365.307 95.2527 365.307 93.795 365.701C93.0124 365.921 92.368 366.583 92.1531 367.402C91.7695 368.898 91.7695 372 91.7695 372C91.7695 372 91.7695 375.118 92.1531 376.598C92.368 377.417 92.9971 378.063 93.795 378.283C95.268 378.693 101.083 378.693 101.083 378.693C101.083 378.693 106.914 378.693 108.372 378.299C109.17 378.079 109.799 377.433 110.014 376.614C110.397 375.118 110.397 372.016 110.397 372.016C110.397 372.016 110.413 368.898 110.014 367.402Z" fill="white"/>
<path d="M99.2266 369.134V374.866L104.075 372L99.2266 369.134Z" fill="black"/>
<path d="M118.821 377.496C118.453 377.244 118.192 376.85 118.039 376.299C117.885 375.764 117.809 375.039 117.809 374.157V372.945C117.809 372.047 117.901 371.323 118.069 370.772C118.254 370.22 118.53 369.827 118.898 369.575C119.282 369.323 119.773 369.197 120.386 369.197C120.985 369.197 121.476 369.323 121.844 369.575C122.212 369.827 122.473 370.236 122.642 370.772C122.811 371.307 122.903 372.032 122.903 372.945V374.157C122.903 375.055 122.826 375.764 122.657 376.315C122.489 376.85 122.228 377.26 121.859 377.512C121.491 377.764 120.985 377.89 120.356 377.89C119.711 377.874 119.19 377.748 118.821 377.496ZM120.893 376.173C121 375.906 121.046 375.449 121.046 374.835V372.22C121.046 371.622 121 371.181 120.893 370.898C120.785 370.614 120.617 370.488 120.356 370.488C120.11 370.488 119.926 370.63 119.834 370.898C119.727 371.181 119.681 371.622 119.681 372.22V374.835C119.681 375.449 119.727 375.906 119.834 376.173C119.926 376.441 120.11 376.583 120.371 376.583C120.617 376.583 120.785 376.457 120.893 376.173Z" fill="white"/>
<path d="M147.147 374.173V374.598C147.147 375.134 147.162 375.543 147.193 375.811C147.224 376.079 147.285 376.284 147.393 376.394C147.485 376.52 147.638 376.583 147.853 376.583C148.129 376.583 148.313 376.472 148.421 376.252C148.528 376.032 148.574 375.669 148.589 375.15L150.17 375.244C150.185 375.323 150.185 375.417 150.185 375.543C150.185 376.315 149.986 376.898 149.571 377.276C149.157 377.654 148.574 377.843 147.822 377.843C146.917 377.843 146.288 377.543 145.92 376.961C145.551 376.378 145.367 375.48 145.367 374.252V372.787C145.367 371.528 145.551 370.614 145.935 370.032C146.319 369.449 146.963 369.165 147.868 369.165C148.497 369.165 148.988 369.291 149.326 369.528C149.664 369.764 149.894 370.142 150.032 370.63C150.17 371.134 150.231 371.827 150.231 372.709V374.142H147.147V374.173ZM147.377 370.646C147.285 370.772 147.224 370.961 147.193 371.228C147.162 371.496 147.147 371.906 147.147 372.457V373.055H148.497V372.457C148.497 371.921 148.482 371.512 148.451 371.228C148.421 370.945 148.344 370.756 148.252 370.646C148.16 370.535 148.006 370.472 147.822 370.472C147.607 370.457 147.469 370.52 147.377 370.646Z" fill="white"/>
<path d="M114.341 374.016L112.254 366.252H114.08L114.816 369.764C115.001 370.63 115.139 371.37 115.231 371.984H115.277C115.338 371.543 115.476 370.819 115.691 369.78L116.458 366.252H118.284L116.167 374.016V377.732H114.356V374.016H114.341Z" fill="white"/>
<path d="M128.841 369.354V377.748H127.399L127.246 376.724H127.2C126.816 377.496 126.217 377.89 125.435 377.89C124.898 377.89 124.499 377.701 124.238 377.339C123.977 376.976 123.854 376.409 123.854 375.622V369.354H125.696V375.512C125.696 375.89 125.742 376.158 125.819 376.315C125.895 376.472 126.033 376.551 126.217 376.551C126.371 376.551 126.524 376.504 126.678 376.394C126.831 376.299 126.939 376.173 127 376.016V369.354H128.841Z" fill="white"/>
<path d="M138.278 369.354V377.748H136.836L136.682 376.724H136.636C136.252 377.496 135.654 377.89 134.871 377.89C134.334 377.89 133.935 377.701 133.675 377.339C133.414 376.976 133.291 376.409 133.291 375.622V369.354H135.132V375.512C135.132 375.89 135.178 376.158 135.255 376.315C135.332 376.472 135.47 376.551 135.654 376.551C135.807 376.551 135.961 376.504 136.114 376.394C136.268 376.299 136.375 376.173 136.437 376.016V369.354H138.278Z" fill="white"/>
<path d="M133.844 367.78H132.018V377.732H130.222V367.78H128.396V366.252H133.844V367.78Z" fill="white"/>
<path d="M144.37 370.693C144.262 370.158 144.078 369.78 143.833 369.543C143.587 369.307 143.234 369.181 142.805 369.181C142.467 369.181 142.145 369.276 141.853 369.48C141.562 369.669 141.332 369.937 141.178 370.252H141.163V365.827H139.383V377.732H140.902L141.086 376.945H141.132C141.27 377.228 141.485 377.449 141.777 377.622C142.068 377.78 142.375 377.874 142.728 377.874C143.357 377.874 143.802 377.575 144.093 376.992C144.385 376.409 144.538 375.48 144.538 374.236V372.913C144.523 371.953 144.477 371.213 144.37 370.693ZM142.682 374.11C142.682 374.724 142.651 375.197 142.605 375.543C142.559 375.89 142.467 376.142 142.36 376.283C142.237 376.425 142.083 376.504 141.899 376.504C141.746 376.504 141.608 376.472 141.485 376.394C141.362 376.315 141.255 376.205 141.178 376.063V371.307C141.239 371.087 141.347 370.898 141.5 370.74C141.654 370.598 141.823 370.52 141.991 370.52C142.175 370.52 142.329 370.598 142.421 370.74C142.528 370.898 142.59 371.15 142.636 371.496C142.682 371.858 142.697 372.362 142.697 373.008V374.11H142.682Z" fill="white"/>
<circle opacity="0.4" cx="33" cy="33" r="18" fill="black"/>
<path d="M23 41V26H38.0869L43 30.9659V40.9488H40.072V28.9693H34.464V40.9488H31.536V28.9693H25.928V41H23Z" fill="white"/>
</g>
<defs>
<linearGradient id="paint0_linear_1715_1726" x1="319.5" y1="0" x2="319.5" y2="436" gradientUnits="userSpaceOnUse">
<stop stop-opacity="0"/>
<stop offset="1" stop-opacity="0.53"/>
</linearGradient>
<clipPath id="clip0_1715_1726">
<rect width="639" height="399" fill="white"/>
</clipPath>
<clipPath id="clip1_1715_1726">
<rect width="71" height="71" fill="white" transform="translate(284 164)"/>
</clipPath>
</defs>
</svg>
